<?xml version="1.0" encoding="UTF-8" standalone="no"?>
<!DOCTYPE svg PUBLIC "-//W3C//DTD SVG 1.1//EN"
 "http://www.w3.org/Graphics/SVG/1.1/DTD/svg11.dtd">
<!-- Generated by graphviz version 2.43.0 (0)
 -->
<!-- Title: alltypes Pages: 1 -->
<svg width="863pt" height="456pt"
 viewBox="0.00 0.00 862.95 455.99" xmlns="http://www.w3.org/2000/svg" xmlns:xlink="http://www.w3.org/1999/xlink">
<g id="graph0" class="graph" transform="scale(1 1) rotate(0) translate(4 451.99)">
<title>alltypes</title>
<polygon fill="white" stroke="transparent" points="-4,4 -4,-451.99 858.95,-451.99 858.95,4 -4,4"/>
<!-- FolderLocation -->
<g id="node1" class="node">
<title>FolderLocation</title>
<ellipse fill="none" stroke="#00cdcd" cx="79.94" cy="-223.99" rx="79.89" ry="18"/>
<text text-anchor="middle" x="79.94" y="-220.29" font-family="Times,serif" font-size="14.00">FolderLocation</text>
</g>
<!-- FilePath -->
<g id="node2" class="node">
<title>FilePath</title>
<ellipse fill="none" stroke="black" cx="281.28" cy="-223.99" rx="49.29" ry="18"/>
<text text-anchor="middle" x="281.28" y="-220.29" font-family="Times,serif" font-size="14.00">FilePath</text>
</g>
<!-- FolderLocation&#45;&gt;FilePath -->
<g id="edge1" class="edge">
<title>FolderLocation&#45;&gt;FilePath</title>
<path fill="none" stroke="black" d="M160.1,-223.99C180.64,-223.99 202.37,-223.99 221.68,-223.99"/>
<polygon fill="black" stroke="black" points="221.83,-227.49 231.83,-223.99 221.83,-220.49 221.83,-227.49"/>
</g>
<!-- Example -->
<g id="node3" class="node">
<title>Example</title>
<ellipse fill="none" stroke="#00cdcd" cx="402.68" cy="-223.99" rx="51.19" ry="18"/>
<text text-anchor="middle" x="402.68" y="-220.29" font-family="Times,serif" font-size="14.00">Example</text>
</g>
<!-- Example&#45;&gt;FilePath -->
<g id="edge11" class="edge">
<title>Example&#45;&gt;FilePath</title>
<path fill="none" stroke="black" d="M351.19,-223.99C347.83,-223.99 344.44,-223.99 341.04,-223.99"/>
<polygon fill="black" stroke="black" points="340.91,-220.49 330.91,-223.99 340.91,-227.49 340.91,-220.49"/>
</g>
<!-- SystemInformation -->
<g id="node4" class="node">
<title>SystemInformation</title>
<ellipse fill="none" stroke="black" cx="552.34" cy="-429.99" rx="100.18" ry="18"/>
<text text-anchor="middle" x="552.34" y="-426.29" font-family="Times,serif" font-size="14.00">SystemInformation</text>
</g>
<!-- Example&#45;&gt;SystemInformation -->
<g id="edge2" class="edge">
<title>Example&#45;&gt;SystemInformation</title>
<path fill="none" stroke="black" d="M411.09,-242.06C433.38,-278.76 493.33,-361.86 527.63,-404.22"/>
<polygon fill="black" stroke="black" points="525.07,-406.62 534.13,-412.12 530.48,-402.17 525.07,-406.62"/>
</g>
<!-- Example&#45;&gt;SystemInformation -->
<g id="edge8" class="edge">
<title>Example&#45;&gt;SystemInformation</title>
<path fill="none" stroke="black" d="M420.11,-240.94C450.33,-276.84 511.25,-360.48 538.67,-403.5"/>
<polygon fill="black" stroke="black" points="535.73,-405.39 543.99,-412.03 541.67,-401.69 535.73,-405.39"/>
</g>
<!-- Choices -->
<g id="node5" class="node">
<title>Choices</title>
<ellipse fill="none" stroke="black" cx="552.34" cy="-18" rx="46.59" ry="18"/>
<text text-anchor="middle" x="552.34" y="-14.3" font-family="Times,serif" font-size="14.00">Choices</text>
</g>
<!-- Example&#45;&gt;Choices -->
<g id="edge3" class="edge">
<title>Example&#45;&gt;Choices</title>
<path fill="none" stroke="black" d="M420.11,-207.05C450.33,-171.15 511.25,-87.51 538.67,-44.49"/>
<polygon fill="black" stroke="black" points="541.67,-46.3 543.99,-35.96 535.73,-42.6 541.67,-46.3"/>
</g>
<!-- Example&#45;&gt;Choices -->
<g id="edge10" class="edge">
<title>Example&#45;&gt;Choices</title>
<path fill="none" stroke="black" d="M411.09,-205.93C433.55,-168.95 494.25,-84.86 528.41,-42.81"/>
<polygon fill="black" stroke="black" points="531.2,-44.92 534.87,-34.98 525.81,-40.47 531.2,-44.92"/>
</g>
<!-- Sentence -->
<g id="node7" class="node">
<title>Sentence</title>
<ellipse fill="none" stroke="black" cx="794.5" cy="-351.31" rx="53.89" ry="18"/>
<text text-anchor="middle" x="794.5" y="-347.61" font-family="Times,serif" font-size="14.00">Sentence</text>
</g>
<!-- Example&#45;&gt;Sentence -->
<g id="edge9" class="edge">
<title>Example&#45;&gt;Sentence</title>
<path fill="none" stroke="black" d="M440.6,-236.32C512.16,-259.57 666.97,-309.87 745.98,-335.54"/>
<polygon fill="black" stroke="black" points="745.09,-338.93 755.69,-338.69 747.26,-332.28 745.09,-338.93"/>
</g>
<!-- CaseStudy -->
<g id="node6" class="node">
<title>CaseStudy</title>
<ellipse fill="none" stroke="#00cdcd" cx="794.5" cy="-96.68" rx="60.39" ry="18"/>
<text text-anchor="middle" x="794.5" y="-92.98" font-family="Times,serif" font-size="14.00">CaseStudy</text>
</g>
<!-- CaseStudy&#45;&gt;SystemInformation -->
<g id="edge4" class="edge">
<title>CaseStudy&#45;&gt;SystemInformation</title>
<path fill="none" stroke="black" d="M781.48,-114.6C741.24,-169.99 618.73,-338.61 571.34,-403.84"/>
<polygon fill="black" stroke="black" points="568.47,-401.83 565.43,-411.98 574.13,-405.95 568.47,-401.83"/>
</g>
<!-- CaseStudy&#45;&gt;Choices -->
<g id="edge6" class="edge">
<title>CaseStudy&#45;&gt;Choices</title>
<path fill="none" stroke="black" d="M753.42,-83.34C710.39,-69.35 642.96,-47.44 598.22,-32.91"/>
<polygon fill="black" stroke="black" points="599.07,-29.5 588.47,-29.74 596.9,-36.16 599.07,-29.5"/>
</g>
<!-- CaseStudy&#45;&gt;Sentence -->
<g id="edge5" class="edge">
<title>CaseStudy&#45;&gt;Sentence</title>
<path fill="none" stroke="black" d="M794.5,-114.99C794.5,-158.86 794.5,-270.18 794.5,-322.86"/>
<polygon fill="black" stroke="black" points="791,-323.16 794.5,-333.16 798,-323.16 791,-323.16"/>
</g>
<!-- CSLegend -->
<g id="node8" class="node">
<title>CSLegend</title>
<ellipse fill="none" stroke="#00cdcd" cx="257.64" cy="-117.99" rx="57.69" ry="18"/>
<text text-anchor="middle" x="257.64" y="-114.29" font-family="Times,serif" font-size="14.00">CSLegend</text>
</g>
<!-- String -->
<g id="node9" class="node">
<title>String</title>
<ellipse fill="none" stroke="black" cx="427.78" cy="-117.99" rx="40.09" ry="18"/>
<text text-anchor="middle" x="427.78" y="-114.29" font-family="Times,serif" font-size="14.00">String</text>
</g>
<!-- CSLegend&#45;&gt;String -->
<g id="edge7" class="edge">
<title>CSLegend&#45;&gt;String</title>
<path fill="none" stroke="black" d="M315.71,-117.99C335.71,-117.99 357.92,-117.99 377.26,-117.99"/>
<polygon fill="black" stroke="black" points="377.38,-121.49 387.38,-117.99 377.38,-114.49 377.38,-121.49"/>
</g>
</g>
</svg>
