<?xml version="1.0" encoding="UTF-8" standalone="no"?>
<!DOCTYPE svg PUBLIC "-//W3C//DTD SVG 1.1//EN"
 "http://www.w3.org/Graphics/SVG/1.1/DTD/svg11.dtd">
<!-- Generated by graphviz version 2.43.0 (0)
 -->
<!-- Title: alltypes Pages: 1 -->
<svg width="709pt" height="116pt"
 viewBox="0.00 0.00 708.79 116.00" xmlns="http://www.w3.org/2000/svg" xmlns:xlink="http://www.w3.org/1999/xlink">
<g id="graph0" class="graph" transform="scale(1 1) rotate(0) translate(4 112)">
<title>alltypes</title>
<polygon fill="white" stroke="transparent" points="-4,4 -4,-112 704.79,-112 704.79,4 -4,4"/>
<!-- FolderLocation -->
<g id="node1" class="node">
<title>FolderLocation</title>
<ellipse fill="none" stroke="#00cdcd" cx="79.94" cy="-90" rx="79.89" ry="18"/>
<text text-anchor="middle" x="79.94" y="-86.3" font-family="Times,serif" font-size="14.00">FolderLocation</text>
</g>
<!-- FilePath -->
<g id="node2" class="node">
<title>FilePath</title>
<ellipse fill="none" stroke="black" cx="79.94" cy="-18" rx="49.29" ry="18"/>
<text text-anchor="middle" x="79.94" y="-14.3" font-family="Times,serif" font-size="14.00">FilePath</text>
</g>
<!-- FolderLocation&#45;&gt;FilePath -->
<g id="edge1" class="edge">
<title>FolderLocation&#45;&gt;FilePath</title>
<path fill="none" stroke="black" d="M79.94,-71.7C79.94,-63.98 79.94,-54.71 79.94,-46.11"/>
<polygon fill="black" stroke="black" points="83.44,-46.1 79.94,-36.1 76.44,-46.1 83.44,-46.1"/>
</g>
<!-- Example -->
<g id="node3" class="node">
<title>Example</title>
<ellipse fill="none" stroke="#00cdcd" cx="228.94" cy="-90" rx="51.19" ry="18"/>
<text text-anchor="middle" x="228.94" y="-86.3" font-family="Times,serif" font-size="14.00">Example</text>
</g>
<!-- Example&#45;&gt;FilePath -->
<g id="edge11" class="edge">
<title>Example&#45;&gt;FilePath</title>
<path fill="none" stroke="black" d="M199.51,-75.17C176.27,-64.25 143.66,-48.93 118.37,-37.05"/>
<polygon fill="black" stroke="black" points="119.6,-33.77 109.07,-32.68 116.63,-40.1 119.6,-33.77"/>
</g>
<!-- SystemInformation -->
<g id="node4" class="node">
<title>SystemInformation</title>
<ellipse fill="none" stroke="black" cx="358.94" cy="-18" rx="100.18" ry="18"/>
<text text-anchor="middle" x="358.94" y="-14.3" font-family="Times,serif" font-size="14.00">SystemInformation</text>
</g>
<!-- Example&#45;&gt;SystemInformation -->
<g id="edge2" class="edge">
<title>Example&#45;&gt;SystemInformation</title>
<path fill="none" stroke="black" d="M251.47,-73.81C268.86,-63.79 293.28,-50.55 314.5,-39.59"/>
<polygon fill="black" stroke="black" points="316.37,-42.56 323.67,-34.89 313.18,-36.33 316.37,-42.56"/>
</g>
<!-- Example&#45;&gt;SystemInformation -->
<g id="edge8" class="edge">
<title>Example&#45;&gt;SystemInformation</title>
<path fill="none" stroke="black" d="M259.47,-75.5C279.14,-65.65 304.61,-52.08 324.91,-40.71"/>
<polygon fill="black" stroke="black" points="326.86,-43.64 333.84,-35.67 323.41,-37.54 326.86,-43.64"/>
</g>
<!-- Choices -->
<g id="node5" class="node">
<title>Choices</title>
<ellipse fill="none" stroke="black" cx="193.94" cy="-18" rx="46.59" ry="18"/>
<text text-anchor="middle" x="193.94" y="-14.3" font-family="Times,serif" font-size="14.00">Choices</text>
</g>
<!-- Example&#45;&gt;Choices -->
<g id="edge3" class="edge">
<title>Example&#45;&gt;Choices</title>
<path fill="none" stroke="black" d="M214.81,-72.41C209.96,-64.45 204.85,-54.72 200.74,-45.76"/>
<polygon fill="black" stroke="black" points="203.9,-44.25 196.74,-36.45 197.47,-47.02 203.9,-44.25"/>
</g>
<!-- Example&#45;&gt;Choices -->
<g id="edge10" class="edge">
<title>Example&#45;&gt;Choices</title>
<path fill="none" stroke="black" d="M226.21,-71.7C222.93,-63.44 218.11,-53.39 213.11,-44.3"/>
<polygon fill="black" stroke="black" points="216.13,-42.53 208.1,-35.62 210.07,-46.03 216.13,-42.53"/>
</g>
<!-- Sentence -->
<g id="node7" class="node">
<title>Sentence</title>
<ellipse fill="none" stroke="black" cx="530.94" cy="-18" rx="53.89" ry="18"/>
<text text-anchor="middle" x="530.94" y="-14.3" font-family="Times,serif" font-size="14.00">Sentence</text>
</g>
<!-- Example&#45;&gt;Sentence -->
<g id="edge9" class="edge">
<title>Example&#45;&gt;Sentence</title>
<path fill="none" stroke="black" d="M267.23,-77.87C274.74,-75.82 282.57,-73.77 289.94,-72 368.42,-53.15 389.38,-54.52 467.94,-36 472.28,-34.98 476.77,-33.87 481.26,-32.72"/>
<polygon fill="black" stroke="black" points="482.25,-36.08 491.05,-30.18 480.49,-29.31 482.25,-36.08"/>
</g>
<!-- CaseStudy -->
<g id="node6" class="node">
<title>CaseStudy</title>
<ellipse fill="none" stroke="#00cdcd" cx="358.94" cy="-90" rx="60.39" ry="18"/>
<text text-anchor="middle" x="358.94" y="-86.3" font-family="Times,serif" font-size="14.00">CaseStudy</text>
</g>
<!-- CaseStudy&#45;&gt;SystemInformation -->
<g id="edge4" class="edge">
<title>CaseStudy&#45;&gt;SystemInformation</title>
<path fill="none" stroke="black" d="M358.94,-71.7C358.94,-63.98 358.94,-54.71 358.94,-46.11"/>
<polygon fill="black" stroke="black" points="362.44,-46.1 358.94,-36.1 355.44,-46.1 362.44,-46.1"/>
</g>
<!-- CaseStudy&#45;&gt;Choices -->
<g id="edge6" class="edge">
<title>CaseStudy&#45;&gt;Choices</title>
<path fill="none" stroke="black" d="M325.55,-74.83C299.02,-63.58 261.83,-47.8 233.75,-35.89"/>
<polygon fill="black" stroke="black" points="234.8,-32.53 224.23,-31.85 232.07,-38.98 234.8,-32.53"/>
</g>
<!-- CaseStudy&#45;&gt;Sentence -->
<g id="edge5" class="edge">
<title>CaseStudy&#45;&gt;Sentence</title>
<path fill="none" stroke="black" d="M393.34,-75C420.73,-63.85 459.21,-48.2 488.51,-36.27"/>
<polygon fill="black" stroke="black" points="490.13,-39.39 498.07,-32.38 487.49,-32.91 490.13,-39.39"/>
</g>
<!-- CSLegend -->
<g id="node8" class="node">
<title>CSLegend</title>
<ellipse fill="none" stroke="#00cdcd" cx="642.94" cy="-90" rx="57.69" ry="18"/>
<text text-anchor="middle" x="642.94" y="-86.3" font-family="Times,serif" font-size="14.00">CSLegend</text>
</g>
<!-- String -->
<g id="node9" class="node">
<title>String</title>
<ellipse fill="none" stroke="black" cx="642.94" cy="-18" rx="40.09" ry="18"/>
<text text-anchor="middle" x="642.94" y="-14.3" font-family="Times,serif" font-size="14.00">String</text>
</g>
<!-- CSLegend&#45;&gt;String -->
<g id="edge7" class="edge">
<title>CSLegend&#45;&gt;String</title>
<path fill="none" stroke="black" d="M642.94,-71.7C642.94,-63.98 642.94,-54.71 642.94,-46.11"/>
<polygon fill="black" stroke="black" points="646.44,-46.1 642.94,-36.1 639.44,-46.1 646.44,-46.1"/>
</g>
</g>
</svg>
