<?xml version="1.0" encoding="UTF-8" standalone="no"?>
<!DOCTYPE svg PUBLIC "-//W3C//DTD SVG 1.1//EN"
 "http://www.w3.org/Graphics/SVG/1.1/DTD/svg11.dtd">
<!-- Generated by graphviz version 2.43.0 (0)
 -->
<!-- Title: G Pages: 1 -->
<svg width="431pt" height="288pt"
 viewBox="0.00 0.00 431.00 288.00" xmlns="http://www.w3.org/2000/svg" xmlns:xlink="http://www.w3.org/1999/xlink">
<g id="graph0" class="graph" transform="scale(3.84 3.84) rotate(0) translate(4 1103.33)">
<title>G</title>
<polygon fill="white" stroke="transparent" points="-4,4 -4,-1103.33 1653.17,-1103.33 1653.17,4 -4,4"/>
<!-- u7 -->
<g id="node1" class="node">
<title>u7</title>
<ellipse fill="#bbffbb" stroke="black" cx="839.09" cy="-550" rx="104.78" ry="18"/>
<text text-anchor="middle" x="839.09" y="-546.3" font-family="Times,serif" font-size="14.00">Drasil.Website.Body</text>
</g>
<!-- u6 -->
<g id="node2" class="node">
<title>u6</title>
<ellipse fill="#bbffbb" stroke="black" cx="152.09" cy="-110" rx="152.17" ry="18"/>
<text text-anchor="middle" x="152.09" y="-106.3" font-family="Times,serif" font-size="14.00">Drasil.Website.Documentation</text>
</g>
<!-- u7&#45;&gt;u6 -->
<g id="edge7" class="edge">
<title>u7&#45;&gt;u6</title>
<path fill="none" stroke="black" d="M812.99,-532.36C706.95,-464.75 308.16,-210.5 187.13,-133.34"/>
<polygon fill="black" stroke="black" points="188.89,-130.31 178.57,-127.89 185.12,-136.21 188.89,-130.31"/>
</g>
<!-- u5 -->
<g id="node3" class="node">
<title>u5</title>
<ellipse fill="#bbffbb" stroke="black" cx="444.09" cy="-110" rx="122.38" ry="18"/>
<text text-anchor="middle" x="444.09" y="-106.3" font-family="Times,serif" font-size="14.00">Drasil.Website.Example</text>
</g>
<!-- u7&#45;&gt;u5 -->
<g id="edge6" class="edge">
<title>u7&#45;&gt;u5</title>
<path fill="none" stroke="black" d="M823.84,-532.1C763.12,-464.76 538.26,-215.42 466.35,-135.69"/>
<polygon fill="black" stroke="black" points="468.79,-133.17 459.5,-128.09 463.59,-137.86 468.79,-133.17"/>
</g>
<!-- u4 -->
<g id="node4" class="node">
<title>u4</title>
<ellipse fill="#bbffbb" stroke="black" cx="704.09" cy="-110" rx="120.48" ry="18"/>
<text text-anchor="middle" x="704.09" y="-106.3" font-family="Times,serif" font-size="14.00">Drasil.Website.Analysis</text>
</g>
<!-- u7&#45;&gt;u4 -->
<g id="edge5" class="edge">
<title>u7&#45;&gt;u4</title>
<path fill="none" stroke="black" d="M833.79,-531.83C813.11,-464.71 737.6,-219.72 712.36,-137.85"/>
<polygon fill="black" stroke="black" points="715.63,-136.58 709.34,-128.05 708.94,-138.64 715.63,-136.58"/>
</g>
<!-- u3 -->
<g id="node5" class="node">
<title>u3</title>
<ellipse fill="#bbffbb" stroke="black" cx="974.09" cy="-110" rx="131.08" ry="18"/>
<text text-anchor="middle" x="974.09" y="-106.3" font-family="Times,serif" font-size="14.00">Drasil.Website.CaseStudy</text>
</g>
<!-- u7&#45;&gt;u3 -->
<g id="edge4" class="edge">
<title>u7&#45;&gt;u3</title>
<path fill="none" stroke="black" d="M844.38,-531.83C865.07,-464.71 940.58,-219.72 965.81,-137.85"/>
<polygon fill="black" stroke="black" points="969.23,-138.64 968.83,-128.05 962.54,-136.58 969.23,-138.64"/>
</g>
<!-- u2 -->
<g id="node6" class="node">
<title>u2</title>
<ellipse fill="#bbffbb" stroke="black" cx="1238.09" cy="-110" rx="115.08" ry="18"/>
<text text-anchor="middle" x="1238.09" y="-106.3" font-family="Times,serif" font-size="14.00">Drasil.Website.Graphs</text>
</g>
<!-- u7&#45;&gt;u2 -->
<g id="edge3" class="edge">
<title>u7&#45;&gt;u2</title>
<path fill="none" stroke="black" d="M854.48,-532.1C915.82,-464.76 1142.96,-215.42 1215.6,-135.69"/>
<polygon fill="black" stroke="black" points="1218.37,-137.84 1222.52,-128.09 1213.2,-133.12 1218.37,-137.84"/>
</g>
<!-- u0 -->
<g id="node8" class="node">
<title>u0</title>
<ellipse fill="#bbffbb" stroke="black" cx="1510.09" cy="-110" rx="139.18" ry="18"/>
<text text-anchor="middle" x="1510.09" y="-106.3" font-family="Times,serif" font-size="14.00">Drasil.Website.Introduction</text>
</g>
<!-- u7&#45;&gt;u0 -->
<g id="edge2" class="edge">
<title>u7&#45;&gt;u0</title>
<path fill="none" stroke="black" d="M864.57,-532.36C968.04,-464.82 1356.87,-211.01 1475.5,-133.57"/>
<polygon fill="black" stroke="black" points="1477.76,-136.28 1484.22,-127.89 1473.93,-130.42 1477.76,-136.28"/>
</g>
<!-- u1 -->
<g id="node7" class="node">
<title>u1</title>
<ellipse fill="#bbffbb" stroke="black" cx="839.09" cy="-989" rx="104.78" ry="18"/>
<text text-anchor="middle" x="839.09" y="-985.3" font-family="Times,serif" font-size="14.00">Drasil.Website.Main</text>
</g>
<!-- u1&#45;&gt;u7 -->
<g id="edge1" class="edge">
<title>u1&#45;&gt;u7</title>
<path fill="none" stroke="black" d="M839.09,-970.87C839.09,-903.97 839.09,-659.97 839.09,-578.04"/>
<polygon fill="black" stroke="black" points="842.59,-578.01 839.09,-568.01 835.59,-578.01 842.59,-578.01"/>
</g>
</g>
</svg>
