<?xml version="1.0" encoding="UTF-8" standalone="no"?>
<!DOCTYPE svg PUBLIC "-//W3C//DTD SVG 1.1//EN"
 "http://www.w3.org/Graphics/SVG/1.1/DTD/svg11.dtd">
<!-- Generated by graphviz version 2.43.0 (0)
 -->
<!-- Title: G Pages: 1 -->
<svg width="431pt" height="288pt"
 viewBox="0.00 0.00 430.56 288.00" xmlns="http://www.w3.org/2000/svg" xmlns:xlink="http://www.w3.org/1999/xlink">
<g id="graph0" class="graph" transform="scale(2.66 2.66) rotate(0) translate(4 763.33)">
<title>G</title>
<polygon fill="white" stroke="transparent" points="-4,4 -4,-763.33 1143.17,-763.33 1143.17,4 -4,4"/>
<!-- u6 -->
<g id="node1" class="node">
<title>u6</title>
<ellipse fill="#bbffbb" stroke="black" cx="577.09" cy="-488" rx="104.78" ry="18"/>
<text text-anchor="middle" x="577.09" y="-484.3" font-family="Times,serif" font-size="14.00">Drasil.Website.Body</text>
</g>
<!-- u5 -->
<g id="node2" class="node">
<title>u5</title>
<ellipse fill="#bbffbb" stroke="black" cx="152.09" cy="-271" rx="152.17" ry="18"/>
<text text-anchor="middle" x="152.09" y="-267.3" font-family="Times,serif" font-size="14.00">Drasil.Website.Documentation</text>
</g>
<!-- u6&#45;&gt;u5 -->
<g id="edge6" class="edge">
<title>u6&#45;&gt;u5</title>
<path fill="none" stroke="black" d="M545.14,-470.84C469.41,-432.53 278.98,-336.19 194.08,-293.24"/>
<polygon fill="black" stroke="black" points="195.49,-290.03 184.99,-288.64 192.33,-296.28 195.49,-290.03"/>
</g>
<!-- u3 -->
<g id="node4" class="node">
<title>u3</title>
<ellipse fill="#bbffbb" stroke="black" cx="442.09" cy="-271" rx="120.48" ry="18"/>
<text text-anchor="middle" x="442.09" y="-267.3" font-family="Times,serif" font-size="14.00">Drasil.Website.Analysis</text>
</g>
<!-- u6&#45;&gt;u3 -->
<g id="edge5" class="edge">
<title>u6&#45;&gt;u3</title>
<path fill="none" stroke="black" d="M566.27,-469.77C542.56,-432.01 485.93,-341.83 458.09,-297.49"/>
<polygon fill="black" stroke="black" points="461.05,-295.62 452.77,-289.01 455.12,-299.34 461.05,-295.62"/>
</g>
<!-- u2 -->
<g id="node5" class="node">
<title>u2</title>
<ellipse fill="#bbffbb" stroke="black" cx="712.09" cy="-271" rx="131.08" ry="18"/>
<text text-anchor="middle" x="712.09" y="-267.3" font-family="Times,serif" font-size="14.00">Drasil.Website.CaseStudy</text>
</g>
<!-- u6&#45;&gt;u2 -->
<g id="edge4" class="edge">
<title>u6&#45;&gt;u2</title>
<path fill="none" stroke="black" d="M587.91,-469.77C611.61,-432.01 668.24,-341.83 696.08,-297.49"/>
<polygon fill="black" stroke="black" points="699.05,-299.34 701.4,-289.01 693.12,-295.62 699.05,-299.34"/>
</g>
<!-- u0 -->
<g id="node7" class="node">
<title>u0</title>
<ellipse fill="#bbffbb" stroke="black" cx="1000.09" cy="-271" rx="139.18" ry="18"/>
<text text-anchor="middle" x="1000.09" y="-267.3" font-family="Times,serif" font-size="14.00">Drasil.Website.Introduction</text>
</g>
<!-- u6&#45;&gt;u0 -->
<g id="edge3" class="edge">
<title>u6&#45;&gt;u0</title>
<path fill="none" stroke="black" d="M608.88,-470.84C684.25,-432.53 873.79,-336.19 958.29,-293.24"/>
<polygon fill="black" stroke="black" points="960.01,-296.29 967.34,-288.64 956.84,-290.05 960.01,-296.29"/>
</g>
<!-- u4 -->
<g id="node3" class="node">
<title>u4</title>
<ellipse fill="#bbffbb" stroke="black" cx="712.09" cy="-54" rx="122.38" ry="18"/>
<text text-anchor="middle" x="712.09" y="-50.3" font-family="Times,serif" font-size="14.00">Drasil.Website.Example</text>
</g>
<!-- u2&#45;&gt;u4 -->
<g id="edge2" class="edge">
<title>u2&#45;&gt;u4</title>
<path fill="none" stroke="black" d="M712.09,-252.77C712.09,-215.49 712.09,-127.08 712.09,-82.18"/>
<polygon fill="black" stroke="black" points="715.59,-82.01 712.09,-72.01 708.59,-82.01 715.59,-82.01"/>
</g>
<!-- u1 -->
<g id="node6" class="node">
<title>u1</title>
<ellipse fill="#bbffbb" stroke="black" cx="577.09" cy="-705" rx="104.78" ry="18"/>
<text text-anchor="middle" x="577.09" y="-701.3" font-family="Times,serif" font-size="14.00">Drasil.Website.Main</text>
</g>
<!-- u1&#45;&gt;u6 -->
<g id="edge1" class="edge">
<title>u1&#45;&gt;u6</title>
<path fill="none" stroke="black" d="M577.09,-686.77C577.09,-649.49 577.09,-561.08 577.09,-516.18"/>
<polygon fill="black" stroke="black" points="580.59,-516.01 577.09,-506.01 573.59,-516.01 580.59,-516.01"/>
</g>
</g>
</svg>
